<svg id="Favourite" xmlns="http://www.w3.org/2000/svg" width="36" height="36" viewBox="0 0 36 36">
  <circle id="Ellipse_928" data-name="Ellipse 928" cx="18" cy="18" r="18" fill="#1f1f39"/>
  <path id="heart_2_" data-name="heart (2)" d="M10.935,22.543a4.451,4.451,0,0,0-2.044.49,4.535,4.535,0,0,0-1.173.865,4.535,4.535,0,0,0-1.173-.865,4.451,4.451,0,0,0-2.044-.49,4.5,4.5,0,0,0-4.5,4.5C0,28.8.928,30.666,2.758,32.59a26.673,26.673,0,0,0,4.7,3.786l.259.167.259-.167a26.672,26.672,0,0,0,4.7-3.786c1.83-1.924,2.758-3.79,2.758-5.547A4.5,4.5,0,0,0,10.935,22.543Z" transform="translate(10.5 -11.043)" fill="none" stroke="#fff" stroke-width="2"/>
</svg>
