<svg xmlns="http://www.w3.org/2000/svg" width="22.004" height="22.003" viewBox="0 0 22.004 22.003">
  <g id="Layer_2" data-name="Layer 2" transform="translate(-0.989 -0.999)">
    <path id="Path_26570" data-name="Path 26570" d="M13.667,12.333a3.667,3.667,0,1,1,3.667-3.667,3.667,3.667,0,0,1-3.667,3.667Zm0-6.111a2.444,2.444,0,1,0,2.444,2.444A2.444,2.444,0,0,0,13.667,6.222Z" transform="translate(-1.668 0.502)" fill="#fff"/>
    <path id="Path_26571" data-name="Path 26571" d="M12.772,27.738a11,11,0,0,1-8.5-4.026l-.381-.469.381-.462a11,11,0,0,1,17,0l.381.462-.381.469A11,11,0,0,1,12.772,27.738Zm-6.96-4.489a9.535,9.535,0,0,0,13.935,0,9.535,9.535,0,0,0-13.935,0Z" transform="translate(-0.773 -4.735)" fill="#fff"/>
    <path id="Path_26572" data-name="Path 26572" d="M12,23a11,11,0,1,1,8.5-4.026A11,11,0,0,1,12,23ZM12,2.467A9.535,9.535,0,1,0,21.533,12,9.535,9.535,0,0,0,12,2.467Z" transform="translate(0)" fill="#fff"/>
    <path id="Path_26573" data-name="Path 26573" d="M5.18,23.48s7.386,8.251,14.9.821l.968-.821s-6.278-6.513-12.652-2.6Z" transform="translate(-1.117 -4.966)" fill="#fff"/>
    <ellipse id="Ellipse_918" data-name="Ellipse 918" cx="2.751" cy="3.209" rx="2.751" ry="3.209" transform="translate(9.262 5.826)" fill="#fff"/>
  </g>
</svg>
